<svg width="96" height="96" viewBox="0 0 96 96" fill="none" xmlns="http://www.w3.org/2000/svg">
  <path d="M34 70C26.8 70 21 64.2 21 57V39C21 31.8 26.8 26 34 26H62C69.2 26 75 31.8 75 39V57C75 64.2 69.2 70 62 70H34Z" stroke="white" stroke-width="5" stroke-linejoin="round"/>
  <circle cx="38" cy="45" r="4" fill="white"/>
  <circle cx="58" cy="45" r="4" fill="white"/>
  <path d="M40 58C42.7 54.8 45.2 53.5 48 53.5C50.8 53.5 53.3 54.8 56 58" stroke="white" stroke-width="5" stroke-linecap="round"/>
  <path d="M30 73L37 64" stroke="white" stroke-width="5" stroke-linecap="round"/>
  <path d="M66 73L59 64" stroke="white" stroke-width="5" stroke-linecap="round"/>
</svg>
