<svg width="96" height="96" viewBox="0 0 96 96" fill="none" xmlns="http://www.w3.org/2000/svg">
  <path d="M49 38C49 32.5 53.3 28 58.5 28C61.9 28 64.3 29.8 65.5 32.4C66.7 29.8 69.1 28 72.5 28C77.7 28 82 32.5 82 38C82 49.9 65.5 58 65.5 58C65.5 58 49 49.9 49 38Z" stroke="white" stroke-width="5" stroke-linejoin="round"/>
  <path d="M14 55C16.6 49.7 20.7 46 27 46H38.5C42.2 46 45 48.8 45 52.5C45 56.2 42.2 59 38.5 59H30" stroke="white" stroke-width="5" stroke-linecap="round"/>
  <path d="M14 55L26 68H47L61 57" stroke="white" stroke-width="5" stroke-linecap="round" stroke-linejoin="round"/>
</svg>
